<?xml version="1.0" standalone="no"?><!DOCTYPE svg PUBLIC "-//W3C//DTD SVG 1.1//EN" "http://www.w3.org/Graphics/SVG/1.1/DTD/svg11.dtd"><svg t="1718243905188" class="icon" viewBox="0 0 1058 1024" version="1.1" xmlns="http://www.w3.org/2000/svg" p-id="9691" id="mx_n_1718243905189" data-spm-anchor-id="a313x.search_index.0.i14.24e53a81jD6yGH" xmlns:xlink="http://www.w3.org/1999/xlink" width="206.640625" height="200"><path d="M301.870059 909.629054l104.550828-104.730778-255.897172-257.002577-104.692217 105.137807z" fill="#1296db" p-id="9692"></path><path d="M301.870059 941.762946c-0.004285 0-0.004285 0 0 0a32.14246 32.14246 0 0 1-22.746511-9.434511l-256.038561-256.599832a32.133891 32.133891 0 0 1-0.021422-45.373055l104.692217-105.133523a32.133891 32.133891 0 0 1 45.535867 0l255.901456 256.998293a32.133891 32.133891 0 0 1-0.029992 45.377339l-104.555113 104.730778a32.121038 32.121038 0 0 1-22.737941 9.434511zM91.204552 653.012084l210.669791 211.128234 59.17349-59.272033-210.524118-211.432436-59.319163 59.576235z" fill="#1296db" p-id="9693"></path><path d="M301.870059 183.253155l104.550828 107.682812-360.589389 362.097539-0.154243-213.604686z" fill="#1296db" p-id="9694" data-spm-anchor-id="a313x.search_index.0.i15.24e53a81jD6yGH" class=""></path><path d="M45.822929 685.167397a32.138176 32.138176 0 0 1-32.129607-32.112468l-0.149958-213.604686a32.14246 32.14246 0 0 1 9.413088-22.746511l256.188519-256.175665a32.133891 32.133891 0 0 1 22.720803-9.413088h0.235649a32.138176 32.138176 0 0 1 22.819347 9.74728l104.555113 107.682812a32.133891 32.133891 0 0 1-0.282778 45.060285l-360.593674 362.093255a32.108184 32.108184 0 0 1-22.776502 9.468786z m32.001071-232.435146l0.08569 122.554377L361.356318 290.653188 301.527297 229.033238 77.824 452.732251z" fill="#1296db" p-id="9695" data-spm-anchor-id="a313x.search_index.0.i16.24e53a81jD6yGH" class=""></path><path d="M756.753138 909.629054l-104.559397-104.730778 256.068552-256.839766 104.53369 104.974996z" fill="#1296db" p-id="9696"></path><path d="M756.757423 941.762946a32.159598 32.159598 0 0 1-22.746511-9.430226l-104.559397-104.730779a32.133891 32.133891 0 0 1-0.017138-45.390192l256.068552-256.839766a32.125322 32.125322 0 0 1 22.759364-9.447364h0.008569a32.133891 32.133891 0 0 1 22.759364 9.460218l104.53369 104.974996a32.133891 32.133891 0 0 1-0.025707 45.373054l-256.042845 256.599833a32.129607 32.129607 0 0 1-22.737941 9.430226z m-59.169205-136.881808l59.16492 59.25918 210.674075-211.128234-59.177774-59.426276-210.661221 211.29533z" fill="#1296db" p-id="9697"></path><path d="M756.753138 183.253155l-104.559397 107.682812 360.602242 362.097539 0.154243-213.604686z" fill="#1296db" p-id="9698"></path><path d="M1012.804552 685.167397a32.121038 32.121038 0 0 1-22.776502-9.460217l-360.602242-362.093255a32.133891 32.133891 0 0 1-0.282779-45.060285l104.559398-107.682812a32.129607 32.129607 0 0 1 22.815063-9.74728h0.239933c8.517623 0 16.692485 3.38477 22.720803 9.408803l256.197088 256.175666a32.14246 32.14246 0 0 1 9.413088 22.74651l-0.154243 213.604686a32.129607 32.129607 0 0 1-32.129607 32.108184zM697.262594 290.653188l283.455197 284.629155 0.089975-122.554376-223.716151-223.694729-59.829021 61.61995z" fill="#1296db" p-id="9699"></path><path d="M405.718226 546.396117m-76.628619 0a76.628619 76.628619 0 1 0 153.257238 0 76.628619 76.628619 0 1 0-153.257238 0Z" fill="#1296db" p-id="9700" data-spm-anchor-id="a313x.search_index.0.i13.24e53a81jD6yGH" class=""></path><path d="M405.718226 655.162912c-59.97041 0-108.758226-48.7921-108.758226-108.76251 0-59.974695 48.787816-108.766795 108.758226-108.766795s108.758226 48.7921 108.758226 108.766795c0 59.97041-48.787816 108.76251-108.758226 108.76251z m0-153.261523c-24.533155 0-44.490444 19.961573-44.490444 44.499013s19.957289 44.494728 44.490444 44.494728 44.490444-19.957289 44.490443-44.494728-19.957289-44.499013-44.490443-44.499013z" fill="#1296db" p-id="9701" data-spm-anchor-id="a313x.search_index.0.i12.24e53a81jD6yGH" class=""></path><path d="M656.478259 552.437289m-76.628619 0a76.628619 76.628619 0 1 0 153.257239 0 76.628619 76.628619 0 1 0-153.257239 0Z" fill="#1296db" p-id="9702" data-spm-anchor-id="a313x.search_index.0.i17.24e53a81jD6yGH"></path><path d="M656.478259 661.199799c-59.97041 0-108.758226-48.7921-108.758226-108.766795 0-59.97041 48.787816-108.76251 108.758226-108.76251s108.758226 48.7921 108.758226 108.76251c0 59.974695-48.787816 108.766795-108.758226 108.766795z m0-153.261523c-24.533155 0-44.490444 19.957289-44.490443 44.494728s19.957289 44.499013 44.490443 44.499013 44.490444-19.961573 44.490444-44.499013-19.957289-44.494728-44.490444-44.494728z" fill="#1296db" p-id="9703"></path></svg>